<svg width="393" height="393" viewBox="0 0 393 393" fill="none" xmlns="http://www.w3.org/2000/svg">
<path d="M387.329 171.053C389.832 174.571 391.562 178.58 392.407 182.816C393.253 187.051 393.193 191.418 392.233 195.629C390.453 205.817 384.991 214.993 376.888 221.409C368.902 228.236 358.727 231.957 348.225 231.892H323.99C294.899 231.928 266.652 241.683 243.727 259.611C220.802 277.54 204.512 302.615 197.438 330.862L190.889 356.769C188.519 367.019 182.671 376.13 174.343 382.549C166.426 389.236 156.417 392.934 146.058 393C135.903 393 128.531 389.516 123.912 382.549C119.293 375.581 118.09 366.967 120.4 356.769L131.283 313.665C133.748 304 133.977 293.9 131.953 284.133C129.929 274.366 125.705 265.19 119.603 257.304C113.501 249.418 105.681 243.03 96.7403 238.626C87.7993 234.222 77.9721 231.919 68.0074 231.892H27.7008C23.5334 232.152 19.3646 231.408 15.544 229.722C11.7234 228.035 8.36267 225.456 5.74404 222.201C3.21421 218.775 1.45966 214.839 0.601913 210.666C-0.255833 206.493 -0.196248 202.183 0.776864 198.036C2.81537 187.721 8.32364 178.417 16.3834 171.675C24.4432 164.932 34.5677 161.158 45.07 160.981H69.0832C98.0352 160.943 126.155 151.28 149.026 133.51C171.897 115.74 188.225 90.8688 195.445 62.8027L202.532 35.4077C204.784 25.3487 210.467 16.3897 218.604 10.0712C226.421 3.5779 236.256 0.0164046 246.414 0C256.538 0 264.099 3.38873 269.067 10.0712C274.034 16.7537 275.078 25.2731 272.23 35.4077L266.314 58.9072C263.245 70.9851 262.967 83.6046 265.503 95.806C268.038 108.007 273.32 119.469 280.946 129.32C288.572 139.171 298.342 147.151 309.512 152.654C320.682 158.157 332.959 161.037 345.409 161.076H365.594C369.755 160.837 373.912 161.621 377.7 163.36C381.489 165.099 384.795 167.74 387.329 171.053Z" fill="#404677"/>
</svg>
